<?xml version="1.0" encoding="utf-8"?>
<!-- Svg Vector Icons : http://www.onlinewebfonts.com/icon -->
<!DOCTYPE svg PUBLIC "-//W3C//DTD SVG 1.1//EN" "http://www.w3.org/Graphics/SVG/1.1/DTD/svg11.dtd">
<svg version="1.1" xmlns="http://www.w3.org/2000/svg" xmlns:xlink="http://www.w3.org/1999/xlink" x="0px" y="0px" viewBox="0 0 1000 1000" enable-background="new 0 0 1000 1000" xml:space="preserve">
<metadata> Svg Vector Icons : http://www.onlinewebfonts.com/icon </metadata>
<g><path d="M519.1,280.4h-59.2v96.5h59.2V280.4z M175.6,481.2l82.8,52.4l32.1-48.6l-82.8-52.4L175.6,481.2z M124.6,666.5h98.6v-57.9h-98.6V666.5z M509.2,667.7L748.4,383L459.9,617L509.2,667.7z M699.6,343.9l-48.8-32.8L595,390.6l48.8,32.8L699.6,343.9z M500,159.7c-270.6,0-490,214.7-490,479.6c0,63.1,13.1,122.5,35.7,177.5v23.4h887.5v-0.6h11.6c28.9-61.1,45.1-128.5,45.1-200.3C990,374.5,770.6,159.7,500,159.7z M898.4,763.1H101.6c-12.8-39-19.9-80.4-19.9-123.7C81.7,413.2,269,229.9,500,229.9c231,0,418.3,183.3,418.3,409.5C918.3,682.7,911.2,724.1,898.4,763.1z M708.2,485l32.1,48.6l82.8-52.4L791,432.6L708.2,485z M775.5,666.5h98.6v-57.9h-98.6V666.5z M279.4,343.9l55.9,79.5l48.8-32.8l-55.9-79.6L279.4,343.9z M513.2,701l-90.8-82l91.1-67.6c-6-1.2-12.1-1.9-18.5-1.9c-49.4,0-89.4,39.2-89.4,87.5c0,48.3,40,87.5,89.4,87.5c49.4,0,89.4-39.2,89.4-87.5c0-8.6-1.7-16.7-4-24.6L513.2,701z"/></g>
</svg>